<svg xmlns="http://www.w3.org/2000/svg" viewBox="0 0 49.25 53.37">
  <path fill="#3e8768" d="M23.5 23.52s2.24 1.18 2.92-.1c.68-1.3-.63-1.16-1.34-1.34-.72-.2-.37-1.99.43-1.74s2.16.19 2.07-.9c-.1-1.1-.79-1.26-1.4-.73-.62.53-.98.37-.87-.04.12-.4.97-.7 2-1.4 1.04-.7.32-2.12-.37-1.5-.7.6-.97.03-.85-.45.13-.49 1.18-.54 1.51-1.26.33-.73-.56-1.25-.96-.6-.4.64-.7-.33-.5-.65.21-.32 1.72-1.05 1.08-2.02-.64-.97-.6.42-.99.52-.4.1-.55-.7-.26-1.13.29-.44.9-1.23.44-1.85-.46-.61-.68-.08-.77.53-.1.6-.76 0-.55-.92.2-.9.59-1.36.11-1.8-.48-.43-.63.2-.6.72.03.52-.66-.55-.54-1.38.12-.83.1-1.54-.4-1.67-.5-.13-.43.28-.4.67.02.39-.47-.03-.55-.61-.08-.58-.06-1.66-.48-1.82-.42-.16-.48.12-.35.77.13.64-.6-.24-.63-1.04-.03-.8-.74-1.52-.8-.92-.05.61-.21.26-.7-.36-.5-.62-1.19-.68-1.27-.1-.1.6.65.91 1.11 1.23.47.33.33.6-.13.58-.47-.03-.59.8.05 1.06.63.26 1.3-.05 1.68.35.38.4.15.47-.54.68-.7.22-.49 1.1.46 1.19.94.08 1.46-.12 1.85.57.4.7-.04.07-.65.15-.6.08-1.25.93-.17 1.28 1.09.34 1.53.33 1.77.66s.5.74.2.85c-.29.12-.4-.53-1.03-.54-.64 0-.78.97 0 1.47.79.5 1.43.74 1.57 1.53.15.8-.38-.2-.94-.4-.56-.22-1.25.53-.45 1.23s1.6 1.33 1.57 1.79c-.03.46-.21-.14-.76-.45-.55-.3-1.38.45-.64 1.27.75.82 1.16 1.78 1.07 2.3-.08.5-.43.13-.76-.44-.32-.56-.87-1.04-1.15-.18-.28.86.25 1.47.62 2.37.37.89 0 1.37-.35 1.03-.35-.35-1.11-1.55-1.34-.69-.22.87.27 3.49 1.99 4.23z"/>
  <path fill="#24543f" d="M22.8 24.2a.1.1 0 0 1-.09-.16c.02-.03 2.07-3.3 2.66-7.75.54-4.1-.09-10.09-6.15-15.3a.1.1 0 0 1 .13-.15c6.14 5.27 6.77 11.33 6.22 15.48-.6 4.5-2.67 7.8-2.69 7.83a.1.1 0 0 1-.09.05z"/>
  <path fill="#3e8768" d="M27.52 26.65s-1.48-1.92-.47-2.86c1-.94 1.14.36 1.44 1.02.3.67 1.83-.06 1.46-.79-.38-.73-.6-2.07.4-2.22.98-.14 1.26.5.91 1.22s-.14 1.04.2.84c.34-.2.43-1.1.86-2.26.42-1.16 1.81-.76 1.4.05-.4.81.16.96.56.73.4-.23.25-1.27.83-1.74.58-.48 1.21.28.72.8-.5.53.42.62.66.35.25-.27.6-1.9 1.59-1.48.98.43-.26.67-.27 1.08-.02.41.72.4 1.05.02.33-.38.92-1.14 1.55-.83.63.32.2.65-.32.87-.51.22.16.74.92.34.76-.4 1.09-.87 1.57-.49s-.05.66-.51.74c-.47.08.6.53 1.32.23.72-.29 1.35-.42 1.56.04.21.46-.16.48-.52.54-.35.06.12.44.65.4.53-.05 1.48-.3 1.7.08.22.37-.01.5-.6.5-.6.02.32.54 1.04.4.71-.14 1.49.4.96.58-.53.19-.19.27.45.62.65.35.84 1 .33 1.22-.5.21-.92-.45-1.3-.83-.37-.39-.6-.2-.48.25s-.6.74-.95.18-.21-1.29-.63-1.57c-.43-.28-.45-.05-.5.68-.07.73-.89.7-1.15-.2-.25-.9-.17-1.46-.86-1.7-.7-.22-.05.07 0 .68.04.6-.6 1.42-1.1.43-.52-.98-.6-1.42-.93-1.58-.34-.17-.75-.34-.8-.02-.05.31.55.28.68.9s-.7.96-1.3.3c-.6-.65-.94-1.23-1.67-1.2-.73.02.26.32.55.83.3.5-.23 1.34-1 .7-.78-.63-1.5-1.28-1.9-1.15-.4.13.17.18.54.65.38.47-.13 1.44-1 .89-.86-.55-1.8-.75-2.23-.56-.44.2-.04.46.52.65.57.2 1.1.64.4 1.1-.71.45-1.36.07-2.23-.11-.86-.18-1.21.3-.84.56.37.27 1.58.76.86 1.16-.72.4-3.14.48-4.12-1.04z"/>
  <path fill="#24543f" d="M27.14 27.57a.1.1 0 0 1-.07-.17c.02-.02 2.55-2.75 6.42-4.3 3.58-1.41 9.07-2.09 14.93 2.8a.1.1 0 1 1-.13.15c-5.78-4.82-11.2-4.16-14.72-2.76a19.08 19.08 0 0 0-6.36 4.25.1.1 0 0 1-.07.03z"/>
  <path fill="#316952" d="M21.73 27.37s1.48-1.93.47-2.86c-1-.94-1.13.36-1.44 1.02-.3.66-1.83-.06-1.45-.79.37-.73.58-2.08-.4-2.22-.99-.14-1.27.5-.92 1.22s.14 1.04-.2.84c-.34-.2-.43-1.1-.85-2.26-.43-1.16-1.82-.76-1.41.05.4.81-.15.96-.56.73-.4-.23-.25-1.27-.83-1.74-.58-.48-1.21.28-.72.8.5.53-.41.62-.66.35-.25-.27-.6-1.9-1.58-1.48-.99.42.25.67.27 1.08 0 .41-.73.39-1.06.01-.33-.37-.92-1.13-1.55-.82-.63.32-.2.65.32.87.51.22-.15.74-.92.34-.76-.4-1.09-.87-1.57-.5-.48.38.05.66.52.75.47.08-.61.52-1.33.23-.71-.3-1.35-.42-1.56.04-.21.45.16.48.52.54.35.06-.12.44-.65.4-.53-.05-1.48-.3-1.7.08-.22.37.01.49.61.5.6.01-.33.54-1.04.4-.72-.14-1.5.4-.97.58.53.18.2.27-.45.62s-.84 1-.33 1.22c.5.2.93-.45 1.3-.84.38-.38.6-.18.48.26-.12.45.6.74.95.18s.21-1.3.64-1.57c.42-.28.44-.05.5.68.06.72.88.7 1.14-.2.26-.9.17-1.46.87-1.7.69-.23.04.07 0 .68-.05.6.58 1.42 1.1.43.52-.98.59-1.42.93-1.58.34-.17.75-.34.8-.03.04.32-.56.29-.69.9-.13.63.7.97 1.3.31.6-.65.94-1.23 1.67-1.2.73.02-.26.32-.55.83-.3.5.23 1.33 1 .7.78-.63 1.5-1.28 1.9-1.15.4.13-.17.18-.54.65-.38.47.13 1.44 1 .89.86-.55 1.8-.75 2.24-.56.44.2.03.46-.53.65-.56.2-1.1.64-.39 1.1.7.45 1.36.06 2.22-.11.86-.18 1.21.3.84.56-.37.26-1.58.76-.86 1.16.72.4 3.14.48 4.12-1.04z"/>
  <path fill="#24543f" d="M22.11 28.29a.1.1 0 0 1-.07-.03A19.07 19.07 0 0 0 15.68 24c-3.52-1.4-8.94-2.06-14.72 2.75a.1.1 0 0 1-.13-.15c5.86-4.88 11.36-4.2 14.93-2.78a19.29 19.29 0 0 1 6.42 4.3.1.1 0 0 1-.07.16z"/>
  <path fill="#3e8768" d="M22.73 27.56s2.35-.57 2.15-1.93c-.2-1.37-1.11-.43-1.76-.1-.66.32-1.4-1.2-.64-1.54.75-.33 1.75-1.25 1.07-1.97-.68-.73-1.3-.4-1.47.37-.18.78-.54.9-.68.53s.35-1.12.74-2.3c.4-1.16-.94-1.73-1.12-.84-.2.89-.72.65-.9.22-.17-.43.6-1.14.45-1.88-.15-.73-1.12-.54-1.07.18.06.72-.7.22-.73-.14-.02-.37.72-1.86-.31-2.15-1.03-.29-.22.69-.47 1.01-.24.33-.8-.15-.83-.65-.02-.5 0-1.46-.69-1.6-.7-.16-.56.37-.3.87.27.5-.58.48-.92-.31-.35-.79-.3-1.36-.92-1.37-.6 0-.37.54-.06.9s-.8.03-1.18-.65c-.37-.67-.79-1.17-1.24-.95-.45.23-.17.48.07.75.23.26-.37.27-.76-.1-.38-.36-.97-1.15-1.37-1-.41.16-.3.4.16.78.45.38-.6.21-1.07-.35-.47-.55-1.4-.62-1.11-.15.3.48-.02.33-.74.2-.73-.13-1.29.26-1.02.74.26.49 1 .24 1.53.17.54-.07.59.23.22.5-.38.28 0 .95.63.74.62-.22.97-.88 1.47-.83.51.04.38.24-.03.84-.4.6.25 1.1 1.01.56.77-.54 1.06-1.03 1.74-.78.69.26 0 .08-.42.53-.42.44-.43 1.47.59 1.03 1.02-.45 1.34-.74 1.71-.66.37.09.8.2.64.48-.16.28-.6-.12-1.1.28-.49.4-.05 1.2.83 1.06.87-.14 1.5-.38 2.05.1.56.47-.4.1-.95.3-.54.21-.65 1.19.35 1.18 1 0 1.96-.06 2.19.29.23.35-.24.03-.83.16-.58.13-.8 1.2.22 1.32 1.03.12 1.88.54 2.1.97.22.43-.26.38-.82.18-.56-.2-1.25-.2-.98.6.26.8 1 .91 1.79 1.31.78.4.76 1 .3.97-.45-.02-1.7-.4-1.4.37.32.76 2.15 2.34 3.88 1.76z"/>
  <path fill="#24543f" d="M22.5 28.54a.1.1 0 0 1-.1-.1c0-.03-.25-3.7-2.29-7.28-1.87-3.3-5.68-7.21-13.2-7.08-.07 0-.1-.04-.1-.1 0-.05.04-.1.1-.1 7.6-.14 11.48 3.83 13.38 7.18a19.29 19.29 0 0 1 2.31 7.37.1.1 0 0 1-.09.1z"/>
  <path fill="#316952" d="M23.75 26.26s2.52.1 2.58-1.35c.06-1.46-1.06-.77-1.79-.63-.73.15-1.19-1.63-.36-1.75.83-.12 2.04-.76 1.48-1.7-.56-.95-1.26-.8-1.58-.05-.33.74-.72.75-.8.33-.07-.41.57-1.04 1.2-2.12.63-1.09-.63-2.05-.99-1.2-.36.85-.86.45-.95-.04-.1-.5.83-1 .81-1.79-.01-.8-1.04-.88-1.12-.13-.09.75-.77.02-.73-.36.05-.38 1.1-1.7.1-2.29-1-.6-.36.64-.67.9-.32.26-.8-.4-.73-.91.08-.52.28-1.5-.4-1.85-.68-.36-.64.22-.47.8.18.6-.68.33-.89-.58-.2-.91-.05-1.48-.67-1.67-.62-.19-.49.44-.24.9.26.46-.83-.2-1.08-1-.25-.81-.58-1.44-1.08-1.34-.5.1-.27.43-.08.78.2.34-.43.17-.75-.32s-.77-1.47-1.22-1.43c-.45.04-.38.31.02.84s-.65.05-1.03-.66c-.37-.71-1.32-1.05-1.1-.48.2.57-.09.32-.8-.02-.72-.35-1.36-.1-1.19.46.18.57.98.53 1.54.62.56.1.56.4.12.58-.43.17-.17.97.5.93.7-.03 1.17-.6 1.68-.41.5.2.34.36-.2.86-.53.5.04 1.2.93.86.89-.33 1.27-.74 1.93-.28.65.46-.02.08-.53.41-.52.34-.73 1.39.4 1.23 1.13-.16 1.52-.36 1.88-.17.36.2.77.45.56.68-.22.24-.6-.3-1.18-.04-.57.27-.28 1.2.64 1.33.93.11 1.6.05 2.08.7.48.65-.43-.02-1.02.03-.6.06-.9 1.03.12 1.31 1.03.29 2.02.51 2.2.94.16.43-.26-.03-.88-.07-.63-.04-1.05 1-.03 1.41 1.02.42 1.81 1.1 1.96 1.61.14.5-.34.31-.87-.06-.54-.37-1.24-.56-1.13.34.12.89.86 1.22 1.59 1.86.72.64.58 1.24.13 1.08-.46-.16-1.67-.91-1.5-.04.16.88 1.74 3.03 3.61 2.95z"/>
  <path fill="#24543f" d="M23.36 27.2h-.01a.1.1 0 0 1-.1-.12c.01-.04.45-3.87-.95-8.14-1.28-3.93-4.44-9.06-12.15-11.12a.1.1 0 0 1-.08-.13.1.1 0 0 1 .13-.08c7.81 2.1 11 7.29 12.3 11.27 1.41 4.31.97 8.19.96 8.22a.1.1 0 0 1-.1.1z"/>
  <path fill="#3e8768" d="M24.69 26.85s-2.52.1-2.58-1.35c-.05-1.45 1.06-.76 1.79-.62s1.19-1.63.36-1.75c-.83-.12-2.03-.77-1.48-1.71.56-.95 1.26-.8 1.58-.05.33.75.72.76.8.34.07-.42-.57-1.05-1.2-2.13-.63-1.08.63-2.05 1-1.2.35.86.85.46.94-.03.1-.5-.83-1-.81-1.8.02-.79 1.04-.88 1.13-.12.08.75.76.01.72-.37-.05-.38-1.1-1.69-.1-2.28 1-.6.36.63.67.9.32.26.8-.4.73-.92-.08-.51-.28-1.5.4-1.85.68-.36.64.22.47.81-.17.59.69.32.89-.59.2-.9.05-1.48.68-1.67.62-.19.48.45.23.9-.25.46.83-.2 1.08-1 .26-.8.58-1.44 1.09-1.34.5.1.27.44.07.78-.19.34.43.17.75-.31.33-.5.77-1.47 1.22-1.43.45.03.38.3-.01.84-.4.52.65.04 1.02-.67.37-.7 1.32-1.05 1.1-.48-.2.57.09.33.8-.02.72-.34 1.37-.1 1.19.47-.18.57-.98.53-1.54.62-.56.09-.55.4-.12.58.43.17.18.97-.5.93-.69-.04-1.17-.6-1.68-.41-.5.19-.34.35.2.85.53.5-.04 1.2-.93.87-.89-.33-1.27-.74-1.92-.28-.66.46.01.07.53.4.51.34.72 1.4-.4 1.23-1.14-.15-1.53-.36-1.89-.16-.36.2-.77.44-.55.68.21.23.6-.31 1.17-.04.58.27.28 1.2-.64 1.32-.93.12-1.6.05-2.08.7-.48.65.43-.02 1.03.04.6.05.9 1.03-.13 1.31s-2.02.51-2.19.94c-.17.42.25-.04.88-.08.62-.03 1.05 1 .02 1.42-1.02.42-1.81 1.1-1.95 1.6-.15.5.33.32.87-.05.53-.37 1.24-.56 1.12.33-.12.9-.86 1.22-1.59 1.86-.72.65-.58 1.24-.12 1.09.45-.16 1.67-.92 1.5-.04-.17.88-1.75 3.02-3.62 2.94z"/>
  <path fill="#24543f" d="M25.08 27.79a.1.1 0 0 1-.1-.1c0-.03-.45-3.9.96-8.21 1.3-3.99 4.49-9.18 12.3-11.27a.1.1 0 0 1 .13.07.1.1 0 0 1-.07.13c-7.72 2.07-10.88 7.2-12.16 11.12a20.9 20.9 0 0 0-.95 8.14.1.1 0 0 1-.1.12z"/>
  <path fill="#316952" d="M25.81 28.46s-2.45-.59-2.1-2c.33-1.42 1.22-.45 1.88-.12.66.34 1.59-1.24.83-1.58-.77-.34-1.75-1.3-.96-2.05.8-.76 1.42-.42 1.53.39.11.8.49.92.67.54.19-.39-.26-1.17-.57-2.38-.31-1.2 1.17-1.8 1.28-.88.11.92.7.67.93.22.22-.44-.53-1.18-.3-1.94.24-.76 1.25-.57 1.12.18-.12.75.74.23.8-.15.05-.38-.6-1.93.53-2.23 1.12-.3.16.71.4 1.05.23.34.87-.16.94-.68.07-.52.14-1.52.9-1.67.74-.16.55.39.22.9-.32.52.58.5 1.02-.32.44-.82.46-1.41 1.1-1.42.65-.02.35.56-.02.93s.86.03 1.32-.68c.46-.7.95-1.22 1.4-.99.47.23.15.5-.13.77-.28.28.37.29.8-.1.45-.38 1.15-1.2 1.57-1.04.42.16.28.4-.24.8-.53.4.6.23 1.16-.35.55-.58 1.56-.66 1.2-.17-.36.5-.01.34.77.2.78-.13 1.34.27 1.01.77-.32.5-1.08.25-1.65.18-.56-.07-.64.24-.27.52.37.29-.1.99-.74.77-.65-.23-.95-.9-1.5-.86-.54.05-.42.26-.04.88s-.37 1.14-1.13.58c-.77-.56-1.02-1.06-1.77-.8-.76.27-.01.08.4.55.4.46.31 1.52-.73 1.07-1.04-.46-1.36-.77-1.76-.68-.4.1-.87.22-.72.5.14.3.65-.13 1.14.29.48.42-.06 1.23-.98 1.1-.92-.14-1.56-.39-2.2.1-.63.5.43.1.99.32.55.21.58 1.23-.48 1.23-1.07-.01-2.09-.06-2.36.3-.28.37.25.04.86.17.6.13.74 1.25-.36 1.37-1.1.12-2.05.57-2.32 1.01-.28.45.24.4.85.18.62-.2 1.35-.2 1 .63-.36.83-1.17.94-2.04 1.36-.87.42-.9 1.04-.42 1 .49-.02 1.86-.42 1.46.38-.4.8-2.5 2.44-4.29 1.85z"/>
  <path fill="#24543f" d="M25.97 29.47h-.02a.1.1 0 0 1-.09-.12c0-.04.63-3.88 3.16-7.65 2.34-3.48 6.82-7.61 14.91-7.5.06 0 .1.06.1.11a.1.1 0 0 1-.1.1h-.32c-7.79 0-12.13 4.01-14.4 7.4a21.15 21.15 0 0 0-3.14 7.57.1.1 0 0 1-.1.1z"/>
  <path fill="#ea8807" d="M16.34 29.7s1.45 19.67 1.8 22.05c.36 2.39 8.56 1.47 11.12 1.36 2.55-.12 2.41-2.5 2.47-5.06.08-3.96.85-18.64.83-18.34z"/>
  <path fill="#d37607" d="m32.42 32.59.14-2.88H16.34l.65 8.6c3.31-4.88 9.3-7.66 15.43-5.72z"/>
  <path fill="#ea8807" d="M32.6 30.66H16.65a1.67 1.67 0 0 1 0-3.35h15.97a1.68 1.68 0 0 1 0 3.35z"/>
  <path fill="#3e8768" d="M24.7 25.6s.73-2.31 2.07-2.03c1.35.29.36 1.14 0 1.77-.37.63 1.1 1.46 1.48.74.38-.73 1.36-1.68 2.04-.95.68.72.32 1.32-.47 1.45-.79.12-.93.48-.57.64.36.16 1.15-.27 2.34-.6 1.2-.32 1.67 1.06.77 1.18-.9.13-.7.68-.28.88.42.2 1.18-.53 1.9-.33.73.2.47 1.16-.24 1.06-.72-.1-.27.7.1.74.36.05 1.9-.6 2.12.45.22 1.05-.7.17-1.04.4-.34.22.1.81.6.87.5.05 1.45.1 1.56.8.1.7-.41.53-.9.23-.47-.3-.51.55.25.95.77.39 1.34.39 1.31 1-.03.6-.56.34-.9 0-.34-.34-.08.8.57 1.22.65.42 1.12.86.87 1.3-.25.43-.49.14-.74-.11-.25-.26-.3.35.05.75.34.4 1.09 1.04.9 1.44-.17.4-.4.28-.76-.2-.35-.49-.25.57.28 1.08.52.5.53 1.44.08 1.12-.46-.33-.33 0-.25.73.09.73-.34 1.26-.8.97-.47-.3-.17-1.02-.07-1.55s-.2-.6-.5-.24c-.29.35-.94-.07-.68-.68.26-.61.93-.91.92-1.42-.01-.51-.22-.4-.85-.02-.63.37-1.08-.32-.49-1.05.6-.73 1.1-.98.89-1.68-.21-.7-.08 0-.55.38-.47.4-1.5.34-1-.65.52-.99.83-1.3.77-1.67-.06-.37-.15-.8-.44-.66-.28.14.09.6-.35 1.07-.43.47-1.19-.02-1-.89.2-.87.48-1.47.04-2.05-.44-.59-.12.4-.37.92-.24.53-1.23.58-1.15-.42.07-1 .19-1.95-.15-2.2-.33-.25-.05.23-.22.81-.17.58-1.25.72-1.3-.3-.05-1.03-.42-1.9-.83-2.16-.41-.25-.4.24-.23.8.16.58.1 1.27-.67.95-.78-.3-.84-1.06-1.19-1.87-.35-.8-.94-.82-.95-.37 0 .46.3 1.73-.45 1.38-.75-.36-2.2-2.3-1.52-3.98z"/>
  <path fill="#24543f" d="M37.24 42.36a.1.1 0 0 1-.1-.11c.62-7.5-2.82-11.51-5.82-13.56A17.21 17.21 0 0 0 24.6 26a.1.1 0 0 1-.09-.11c0-.06.06-.1.11-.09.04 0 3.53.46 6.82 2.71 3.04 2.08 6.53 6.15 5.9 13.74a.1.1 0 0 1-.09.1z"/>
  <path fill="#3e8768" d="M24.55 25.6s-.72-2.31-2.07-2.03c-1.35.29-.36 1.14 0 1.77.37.63-1.1 1.46-1.48.74-.38-.73-1.36-1.68-2.04-.95-.68.72-.32 1.32.47 1.45.79.12.93.48.57.64-.36.16-1.14-.27-2.34-.6-1.19-.32-1.67 1.06-.77 1.18.9.13.7.68.28.88-.42.2-1.18-.53-1.9-.33-.73.2-.47 1.16.24 1.06.72-.1.27.7-.1.74-.36.05-1.9-.6-2.11.45-.23 1.05.7.17 1.03.4.35.22-.1.81-.6.87-.49.05-1.45.1-1.56.8-.1.7.42.53.9.23.47-.3.51.55-.25.95-.77.39-1.34.39-1.3 1 .02.6.56.34.9 0 .33-.34.07.8-.58 1.22-.65.42-1.12.86-.87 1.3.26.43.5.14.74-.11.25-.26.3.35-.04.75-.35.4-1.1 1.04-.91 1.44.17.4.4.28.76-.2.35-.49.25.57-.27 1.08-.53.5-.54 1.44-.08 1.12.45-.33.32 0 .24.73-.09.73.34 1.26.8.97.47-.3.18-1.02.07-1.55-.1-.53.2-.6.5-.24.29.35.94-.07.68-.68-.26-.61-.93-.91-.92-1.42.01-.51.22-.4.85-.02.63.37 1.08-.32.49-1.05-.6-.73-1.1-.98-.89-1.68.21-.7.08 0 .55.38.48.4 1.5.34 1-.65-.52-.99-.83-1.3-.77-1.67.06-.37.15-.8.44-.66.29.14-.09.6.35 1.07.43.47 1.19-.02 1-.89-.2-.87-.48-1.47-.04-2.05.44-.59.13.4.37.92.24.53 1.23.58 1.16-.42-.08-1-.2-1.95.14-2.2.34-.25.05.23.22.81.17.58 1.25.72 1.3-.3.05-1.03.42-1.9.83-2.16.42-.25.4.24.23.8-.16.58-.1 1.27.67.95.78-.3.84-1.06 1.2-1.87.34-.8.94-.82.94-.37 0 .46-.3 1.73.45 1.38.75-.36 2.2-2.3 1.52-3.98z"/>
  <path fill="#24543f" d="M12.01 42.36a.1.1 0 0 1-.1-.1c-.62-7.6 2.87-11.67 5.91-13.75a17.43 17.43 0 0 1 6.8-2.73c.07 0 .11.03.12.08a.1.1 0 0 1-.09.11c-.03 0-3.47.47-6.72 2.7-3 2.06-6.44 6.08-5.82 13.58a.1.1 0 0 1-.1.1z"/>
</svg>
