<svg xmlns="http://www.w3.org/2000/svg" viewBox="0 0 43.63 49.19">
  <path fill="#ea8807" d="M9.72 34.01s-4.23 6.44-2.2 11.03c2.02 4.58 7.67 4.14 14.2 4.14 6.52 0 13.66 0 14.9-4.5 1.23-4.5-3.44-10.05-3.44-10.05z"/>
  <path fill="#d37607" d="M11.75 38.25c7.07-3.3 15.4-2.4 23.3-.86-.93-1.64-1.87-2.76-1.87-2.76L9.72 34s-4.23 6.44-2.2 11.03A5.9 5.9 0 0 0 9 47.1c-1.1-3.56-.76-7.26 2.75-8.85z"/>
  <path fill="#ea8807" d="M33.8 35.33H9.63a1.67 1.67 0 0 1 0-3.35H33.8a1.68 1.68 0 0 1 0 3.35z"/>
  <path fill="#24543f" d="M20.87 31.97h1c.46-4 .2-9-.16-10.91a10.7 10.7 0 0 0-1.56-4.26c2.01 4.76 1.15 12.31.72 15.17zM21 7.53s.83-2.88.28-5.61c-.54-2.73-2.55-2.38-3.46 0-.91 2.38 3.12 4.82 3.18 5.1.06.27 0 .5 0 .5z"/>
  <path fill="#316952" d="M17.82 1.92s-.7 1.66 2.4 3.92c3.08 2.25 2.95 3.58 2.33 6.33-.62 2.76-.84 8.44-.84 8.89C19.38 16.2 16.26 5 17.81 1.92Z"/>
  <path fill="#24543f" d="M22.2 14.36s.39-4.2-1.2-5.74c-1.58-1.54-3.32-2.95-3.6-4.05.52 2.2 2.13 2.8 3.21 4.04 1.08 1.24 1.63 3.28 1.59 5.75z"/>
  <path fill="#24543f" d="M21.8 18.92s1-4.73-.58-6.27c-1.59-1.54-3.1-3.14-3.37-4.24.52 2.2 1.9 3 2.97 4.23 1.09 1.23 1.03 3.82.99 6.28z"/>
  <path fill="#316952" d="M25.7 23.13s1-6.28 9-5.75c8 .53 8.73 6.13 8.93 7.43-5.69 2.29-14.02 3.75-17.93-1.68z"/>
  <path fill="#24543f" d="M30.86 21.44c-6.35.24-8.08 2.87-9.15 5.04a28.5 28.5 0 0 0-1.73 5.5h.86c.48-2.67 2.18-9.11 7.64-9.87 7.58-1.06 14.29 2.22 14.29 2.22s-5.56-3.12-11.9-2.89z"/>
  <path fill="#24543f" d="M27.84 22.1c-.42 0-.42-.1-.42-.1v.1s.18 2.4 3.62 4.05c-1.06-.73-2.98-1.85-3.2-4.04zm.8-.33c-.42 0-.42.1-.42.1v-.1s.18-2.4 3.61-4.04c-1.05.72-2.97 1.85-3.2 4.04zm3.11-.1c-.42 0-.42.1-.42.1v-.1s.17-2.39 3.61-4.04c-1.06.72-2.97 1.85-3.2 4.04zm2.65.22c-.4-.12-.43-.03-.43-.03l.03-.1s.85-2.23 4.62-2.84c-1.22.4-3.38.93-4.22 2.97zm3.03.42c-.34-.1-.36-.02-.36-.02l.02-.08s.72-1.9 3.9-2.41c-1.04.33-2.85.79-3.56 2.51zm1.59.56c-.22-.16-.26-.1-.26-.1l.04-.06s1.13-1.3 3.65-.87c-.87 0-2.36-.13-3.43 1.03zm-8.32-1.12c-.4 0-.4-.1-.4-.1v.1s.17 2.4 3.6 4.05c-1.05-.73-2.97-1.85-3.2-4.05zm3.02.07c-.42 0-.42-.1-.42-.1v.1s.18 2.4 3.62 4.05c-1.06-.73-2.98-1.86-3.2-4.05zm2.88.28c-.4 0-.4-.1-.4-.1v.1s.16 2.1 3.43 3.56c-1-.64-2.83-1.63-3.04-3.57zm2.9.86c-.31 0-.31-.06-.31-.06v.06s.13 1.39 2.67 2.35c-.78-.43-2.2-1.08-2.36-2.35z"/>
  <path fill="#316952" d="M24.39 19.46s-4.03-4.93 1.7-10.55C31.8 3.3 36.46 6.48 37.56 7.2c-2.08 5.77-6.54 12.96-13.18 12.26z"/>
  <path fill="#24543f" d="M26.56 14.49a14.25 14.25 0 0 0-2.65 4.43c-.23.68-2 9.47-2.66 13.05h.79c.4-2.58 2.26-11.98 2.34-12.48.14-.94.49-1.89 1.09-2.79 4.25-6.35 11.18-9.17 11.18-9.17s-6.03 2.06-10.09 6.96z"/>
  <path fill="#24543f" d="M25.04 17.18c-.28.31-.35.25-.35.25l.07.06s1.9 1.46 5.43 0c-1.25.3-3.36.98-5.15-.31zm.28-.82c-.27.32-.2.38-.2.38l-.07-.06s-1.67-1.73-.62-5.4c-.16 1.28-.6 3.46.9 5.08zm2-2.38c-.28.31-.2.38-.2.38l-.08-.07s-1.67-1.72-.61-5.39c-.16 1.27-.6 3.46.89 5.08zm1.93-1.84c-.36.22-.3.3-.3.3l-.06-.08s-1.1-2.13.96-5.34c-.52 1.17-1.56 3.14-.6 5.12zm2.33-1.97c-.3.18-.26.25-.26.25l-.04-.07s-.94-1.8.8-4.51c-.44.99-1.32 2.65-.5 4.33zm1.48-.82c-.27.05-.26.12-.26.12l-.01-.07s-.21-1.7 1.78-3.3c-.58.65-1.67 1.68-1.51 3.25zm-6.37 5.45c-.28.32-.35.25-.35.25l.07.07s1.9 1.46 5.43 0c-1.25.3-3.37.98-5.15-.31zm2.05-2.2c-.28.32-.35.25-.35.25l.07.07s1.9 1.46 5.43 0c-1.25.3-3.37.98-5.15-.32zm2.12-1.96c-.26.3-.33.24-.33.24l.07.06s1.68 1.28 4.94-.19c-1.14.33-3.1 1.02-4.68-.1zm2.58-1.59c-.2.23-.25.2-.25.2l.05.03s1.12.83 3.52-.43c-.83.3-2.26.93-3.32.2z"/>
  <path fill="#316952" d="M17.81 19.33s.53-6.35-7.37-7.73C2.54 10.22.5 15.49 0 16.7c4.98 3.58 12.73 6.97 17.81 2.63z"/>
  <path fill="#24543f" d="M20.33 30.22s1.5-9.98-4.97-12.55C8.25 14.85.95 16.45.95 16.45s6.14-1.72 12.25.01 7.17 4.7 7.7 7.07c.52 2.36.36 6.2.36 6.2z"/>
  <path fill="#24543f" d="M15.98 17.82c.4.1.43 0 .43 0l-.03.1s-.73 2.28-4.47 3.07c1.2-.45 3.33-1.1 4.07-3.17zm-.7-.52c.41.1.39.2.39.2l.02-.1s.4-2.36-2.55-4.78c.85.96 2.45 2.5 2.14 4.69zm-2.99-.83c.4.1.38.2.38.2l.03-.1s.4-2.36-2.56-4.78c.86.95 2.45 2.5 2.15 4.68zm-2.63-.42c.41-.02.42.08.42.08v-.1s-.3-2.38-3.82-3.86c1.1.68 3.07 1.7 3.4 3.88zm-3.04-.3c.35-.02.35.07.35.07v-.09s-.25-2.01-3.21-3.27c.92.57 2.58 1.44 2.86 3.29zm-1.69.17c.26-.11.29-.05.29-.05l-.03-.06s-.8-1.53-3.34-1.71c.84.2 2.32.43 3.08 1.82zm8.35.88c.4.1.43 0 .43 0l-.03.1s-.73 2.28-4.47 3.07c1.2-.46 3.33-1.1 4.07-3.17zm-2.94-.65c.4.1.43 0 .43 0l-.03.1s-.73 2.28-4.47 3.07c1.2-.45 3.33-1.1 4.07-3.17zm-2.86-.42c.39.1.4.01.4.01l-.01.09s-.67 2-4.18 2.65c1.12-.38 3.13-.92 3.8-2.75zm-3.03.16c.3.07.32.02.32.02l-.02.05s-.45 1.32-3.15 1.65c.86-.23 2.4-.53 2.85-1.72zM24.87 26.4s-1.4-1.45-3.23-1.14c-1.82.3-2.79 5.02-2.79 5.02l.83.5s.56-2.7 1.53-3.94c.97-1.25 1.91-1 3.13-.16 1.21.85.53-.27.53-.27z"/>
  <path fill="#316952" d="M32.9 32.56c2.62 7.58-2.25 10.43-3.37 11.12-4.33-4.35-8.92-11.46-5.44-17.16 0 0 6.18-1.54 8.8 6.04z"/>
  <path fill="#24543f" d="M24.42 26c1.1.94 2.2 2.39 3.24 4.61 2.68 5.76 1.97 12.1 1.97 12.1s.41-7.47-3.51-14.03a6.87 6.87 0 0 0-2.11-2.23c.11-.17.2-.4.41-.46z"/>
  <path fill="#24543f" d="M25.87 28.09c-.16-.39-.07-.43-.07-.43l-.1.04s-2.13 1.1-2.31 4.9c.26-1.25.55-3.46 2.48-4.51zm.62.6c-.17-.39-.26-.35-.26-.35l.1-.04s2.27-.77 5.13 1.76c-1.08-.7-2.87-2.02-4.97-1.37zm1.3 2.82c-.16-.38-.26-.34-.26-.34l.1-.04s2.27-.77 5.13 1.75c-1.08-.69-2.87-2.02-4.97-1.37zm.83 2.54c-.04-.42-.14-.41-.14-.41l.1-.01s2.4-.09 4.42 3.15c-.84-.97-2.17-2.76-4.38-2.73zm.79 2.95c-.04-.35-.12-.34-.12-.34l.08-.01s2.03-.08 3.74 2.64c-.7-.81-1.83-2.31-3.7-2.3zm.11 1.68c.06-.26 0-.28 0-.28l.06.02s1.64.53 2.22 3.02c-.33-.8-.8-2.23-2.28-2.76zm-2.21-8.09c-.16-.39-.07-.42-.07-.42l-.1.03s-2.13 1.1-2.31 4.91c.26-1.26.55-3.46 2.48-4.52zm1.11 2.8c-.16-.39-.07-.43-.07-.43l-.09.04s-2.14 1.1-2.32 4.9c.26-1.25.55-3.46 2.48-4.51zm.87 2.75c-.16-.37-.08-.4-.08-.4l-.08.03s-1.88.98-1.95 4.56c.2-1.18.4-3.24 2.1-4.19zm.33 3.01c-.12-.28-.07-.3-.07-.3l-.05.02s-1.23.66-1.12 3.37c.08-.88.13-2.44 1.24-3.09z"/>
  <path fill="#316952" d="M10.22 28.57c-6.98 3.96-5.2 9.32-4.81 10.58 6.12-.41 14.26-2.72 15.42-9.3 0 0-3.63-5.23-10.6-1.28z"/>
  <path fill="#24543f" d="M20.92 29.23a13.5 13.5 0 0 0-5.48 1.34c-5.81 2.55-9.46 7.77-9.46 7.77s4.62-5.87 11.9-8.21a6.87 6.87 0 0 1 3.05-.28c.03-.2.12-.43 0-.62z"/>
  <path fill="#24543f" d="M18.45 29.85c.38-.18.34-.27.34-.27l.04.09s.88 2.23-1.5 5.21c.64-1.11 1.88-2.96 1.12-5.03zm-.85.05c.37-.19.41-.1.41-.1l-.04-.09s-1.2-2.07-5.02-2.07c1.27.2 3.5.38 4.64 2.26zm-2.85 1.26c.38-.18.42-.1.42-.1l-.04-.08s-1.2-2.08-5.02-2.08c1.27.2 3.49.38 4.64 2.26zm-2.3 1.34c.3-.28.38-.2.38-.2l-.07-.08s-1.74-1.65-5.4-.55c1.27-.18 3.45-.64 5.09.84zm-2.54 1.7c.26-.23.32-.17.32-.17l-.06-.06s-1.47-1.4-4.56-.49c1.08-.14 2.91-.52 4.3.72zm-1.19 1.2c.12-.24.19-.21.19-.21l-.07-.04s-1.58-.67-3.66.81c.78-.38 2.07-1.14 3.54-.56zm7-4.62c.37-.18.33-.27.33-.27l.04.09s.89 2.23-1.5 5.21c.64-1.11 1.88-2.96 1.13-5.03zm-2.68 1.37c.37-.19.33-.27.33-.27l.04.08s.88 2.24-1.5 5.22c.64-1.12 1.88-2.96 1.13-5.03zm-2.47 1.49c.36-.17.32-.25.32-.25l.04.08s.76 1.97-1.55 4.7c.63-1.01 1.84-2.7 1.19-4.53zm-2.24 2.05c.28-.14.25-.19.25-.19l.03.05s.48 1.3-1.4 3.27c.53-.72 1.52-1.92 1.12-3.13z"/>
</svg>
