<?xml version="1.0" encoding="UTF-8"?>
<!DOCTYPE svg PUBLIC "-//W3C//DTD SVG 1.1//EN" "http://www.w3.org/Graphics/SVG/1.1/DTD/svg11.dtd">
<svg xmlns="http://www.w3.org/2000/svg" version="1.1" width="512px" height="512px" style="shape-rendering:geometricPrecision; text-rendering:geometricPrecision; image-rendering:optimizeQuality; fill-rule:evenodd; clip-rule:evenodd" xmlns:xlink="http://www.w3.org/1999/xlink">
<g><path style="opacity:1" fill="#dd0177" d="M -0.5,-0.5 C 170.167,-0.5 340.833,-0.5 511.5,-0.5C 511.5,170.167 511.5,340.833 511.5,511.5C 340.833,511.5 170.167,511.5 -0.5,511.5C -0.5,340.833 -0.5,170.167 -0.5,-0.5 Z"/></g>
<g><path style="opacity:1" fill="#fefefe" d="M 171.5,139.5 C 191.109,137.457 209.776,140.623 227.5,149C 243.63,158.493 252.463,172.66 254,191.5C 255.195,208.479 255.695,225.479 255.5,242.5C 235.833,242.5 216.167,242.5 196.5,242.5C 196.939,222.454 196.439,202.454 195,182.5C 194.167,180.333 192.667,178.833 190.5,178C 180.318,175.843 175.151,180.01 175,190.5C 174.333,234.167 174.333,277.833 175,321.5C 173.701,333.536 178.867,338.702 190.5,337C 192.726,335.773 194.226,333.939 195,331.5C 196.393,314.538 196.893,297.538 196.5,280.5C 216.167,280.5 235.833,280.5 255.5,280.5C 256.268,300.76 254.434,320.76 250,340.5C 241.816,357.348 228.649,368.181 210.5,373C 186.106,379.133 162.773,376.466 140.5,365C 126.722,355.957 119.222,343.124 118,326.5C 116.859,317.543 116.192,308.543 116,299.5C 115.333,268.5 115.333,237.5 116,206.5C 115.447,168.231 133.947,145.898 171.5,139.5 Z"/></g>
<g><path style="opacity:1" fill="#fefefe" d="M 321.5,139.5 C 340.433,137.848 358.766,140.348 376.5,147C 393.808,155.769 402.308,169.936 402,189.5C 402.5,197.159 402.666,204.826 402.5,212.5C 384.167,212.5 365.833,212.5 347.5,212.5C 347.666,203.494 347.5,194.494 347,185.5C 345.41,178.786 341.244,176.286 334.5,178C 332,179.167 330.167,181 329,183.5C 327.443,190.753 327.11,198.086 328,205.5C 329.506,212.008 333.006,217.175 338.5,221C 354.016,230.256 369.016,240.256 383.5,251C 397.133,261.428 404.633,275.261 406,292.5C 406.667,305.5 406.667,318.5 406,331.5C 404.05,350.789 393.884,363.622 375.5,370C 357.19,375.69 338.524,377.024 319.5,374C 292.285,368.46 277.452,351.96 275,324.5C 273.895,312.858 273.395,301.192 273.5,289.5C 291.833,289.5 310.167,289.5 328.5,289.5C 328.333,302.504 328.5,315.504 329,328.5C 330.593,336.554 335.426,339.387 343.5,337C 346,335.833 347.833,334 349,331.5C 350.584,322.242 350.917,312.909 350,303.5C 348.24,295.397 343.74,289.23 336.5,285C 324.167,276.667 311.833,268.333 299.5,260C 283.967,250.119 275.134,235.952 273,217.5C 271.892,202.734 272.558,188.067 275,173.5C 280.638,157.864 291.471,147.697 307.5,143C 312.295,141.801 316.962,140.634 321.5,139.5 Z"/></g>
</svg>
