<svg xmlns="http://www.w3.org/2000/svg" viewBox="0 0 43.21 52.45">
  <path fill="#53a57f" d="M18.57 21.04s4.36-9.3 1.84-10.34c-2.53-1.04-1.3 1.97-2.63 1.54-1.32-.44.26-6.86-2.36-7.32-2.62-.45-1.76 3.17-2.45 1.7C12.27 5.15 11.9 1 9.62.84 7.33.7 9.4 3.4 8.18 3.32 6.96 3.26 4.82-1.66 2.28.6.99 2 5.03 4.79 6.33 5.76c1.31.98-.02.72-1.54 1.6-1.51.88-.9 1.98 1.84 3.15 2.73 1.17 4.68 2.92 3.82 2.92-.86 0-4.14-1.05-3.84.72.3 1.76 2.17 3.07 4.86 4.02 2.69.95 5.35 3 5.89 3.77.54.76 1.2-.9 1.2-.9z"/>
  <path fill="#4e9b7a" d="M17.66 23.62a.13.13 0 0 1-.13-.11c-.02-.14-2.55-14.08-14-21.85a.13.13 0 0 1 .16-.22c11.54 7.84 14.08 21.88 14.1 22.02a.13.13 0 0 1-.13.16z"/>
  <path fill="#4e9b7a" d="m16.57 19.55-.07-.03a47.18 47.18 0 0 1-8.15-4.49.13.13 0 0 1 .15-.21c.04.02 4.12 2.87 8.03 4.43 2-1.51 2.79-5.62 3.04-7.32 0-.07.01-.11.02-.12.01-.07.09-.11.16-.1.07.03.1.1.1.17l-.02.08c-.26 1.76-1.07 6.01-3.2 7.55z"/>
  <path fill="#4e9b7a" d="m14.19 13.97-.11-.1A24.79 24.79 0 0 0 5.8 9a.13.13 0 0 1-.08-.16c.02-.07.1-.11.16-.09.05.01 4.44 1.4 8.26 4.8 1.28-2.06.93-7.16.93-7.21a.13.13 0 1 1 .26-.02c.02.22.38 5.46-1.06 7.52z"/>
  <path fill="#4e9b7a" d="M10.6 8.29h-.03a.13.13 0 0 1-.1-.16c.51-2.59-.73-6.18-.74-6.22a.13.13 0 0 1 .08-.17c.07-.02.14.01.17.08.05.15 1.28 3.7.74 6.36a.13.13 0 0 1-.12.1z"/>
  <path fill="#316952" d="M22.86 32.24s-2.32-10 .37-10.49c2.69-.49.86 2.2 2.24 2.06 1.39-.15 1.2-6.77 3.85-6.66 2.66.1 1.06 3.47 2.04 2.17 1-1.3 2.21-5.27 4.49-4.94 2.27.32-.32 2.53.89 2.73 1.2.19 4.32-4.17 6.34-1.44.96 1.66-3.57 3.52-5.05 4.2-1.48.7-.12.71 1.17 1.9 1.3 1.17.46 2.12-2.46 2.69-2.91.57-5.19 1.87-4.35 2.05.84.18 4.27-.16 3.6 1.5-.66 1.67-2.76 2.56-5.59 2.92-2.82.37-5.85 1.81-6.54 2.45-.7.64-1-1.14-1-1.14z"/>
  <path fill="#4e9b7a" d="M23.24 34.96h-.05a.13.13 0 0 1-.08-.18c.06-.13 5.48-13.33 18.41-18.57.07-.03.15 0 .18.07.02.07-.01.15-.08.17-12.82 5.2-18.2 18.3-18.26 18.43a.13.13 0 0 1-.12.08z"/>
  <path fill="#4e9b7a" d="m25.13 31.21-.05-.05c-1.76-1.95-1.67-6.28-1.55-8.05v-.09c.01-.07.07-.13.14-.13.08 0 .13.05.13.12v.12c-.12 1.72-.21 5.9 1.43 7.8 4.15-.7 8.74-2.64 8.78-2.65.07-.03.15 0 .18.07.02.06 0 .14-.08.17a46.9 46.9 0 0 1-8.91 2.68z"/>
  <path fill="#4e9b7a" d="m28.63 26.25-.06-.13c-.97-2.32.48-7.36.54-7.58.02-.07.1-.1.17-.09.07.02.1.1.09.17-.02.05-1.43 4.96-.61 7.25a25.1 25.1 0 0 1 9.08-2.97c.07 0 .14.05.14.12.01.08-.04.14-.12.15-.04 0-4.67.44-9.1 3.01z"/>
  <path fill="#4e9b7a" d="M33.36 21.46a.13.13 0 0 1-.13-.14c.03-2.71 1.98-5.92 2.06-6.06a.13.13 0 1 1 .23.14c-.02.03-2 3.29-2.03 5.93 0 .07-.06.13-.13.13z"/>
  <path fill="#3e8768" d="M18.63 33.2s-8.6-8.38-6.26-10.57c2.33-2.18 2.24 1.63 3.5.6 1.27-1.01-3.1-7.4-.41-8.98 2.68-1.58 3.23 2.75 3.38.85.16-1.9-1.15-6.6 1.3-7.71 2.44-1.12 1.29 2.7 2.6 2.12 1.3-.57 1.63-6.84 5.34-5.42 2 1.03-1.29 5.73-2.32 7.34-1.02 1.61.33.77 2.35 1.12 2.03.34 1.8 1.8-.71 4.2-2.52 2.41-3.94 5.13-3 4.78.94-.35 4.1-2.85 4.5-.8.4 2.07-1.1 4.27-3.66 6.42-2.56 2.15-4.63 5.48-4.9 6.54-.29 1.07-1.7-.48-1.7-.48z"/>
  <path fill="#4e9b7a" d="M20.64 35.67a.15.15 0 0 1-.16-.12c-.03-.17-3.02-16.6 6.4-29.94a.16.16 0 0 1 .25.18C17.8 19 20.77 35.31 20.8 35.48a.16.16 0 0 1-.15.18z"/>
  <path fill="#4e9b7a" d="m20.21 30.75-.08-.02c-2.96-.8-5.6-5.13-6.6-6.95l-.06-.1a.16.16 0 0 1 .04-.2.15.15 0 0 1 .21.03l.07.12c.97 1.77 3.52 5.95 6.34 6.78a55.1 55.1 0 0 0 6.98-8.16.15.15 0 1 1 .26.17c-.03.05-3.4 4.94-7.1 8.28z"/>
  <path fill="#4e9b7a" d="m20.53 23.66-.15-.1c-2.41-1.67-4.18-7.56-4.25-7.8a.16.16 0 0 1 .3-.1c.02.06 1.73 5.8 3.99 7.54a29.38 29.38 0 0 1 7.07-8.67.15.15 0 0 1 .2.25c-.05.03-4.34 3.38-7.08 8.72z"/>
  <path fill="#4e9b7a" d="M22.08 15.96a.15.15 0 0 1-.13-.07c-1.68-2.7-1.8-7.1-1.8-7.28 0-.09.07-.16.15-.16.08 0 .16.07.16.15 0 .05.12 4.5 1.75 7.13a.15.15 0 0 1-.13.23z"/>
  <path fill="#316952" d="M16.54 33.78s4.37-9.29 1.84-10.33c-2.52-1.05-1.3 1.97-2.62 1.53-1.32-.43.25-6.86-2.37-7.31-2.62-.45-1.76 3.17-2.45 1.7-.7-1.48-1.05-5.63-3.35-5.78-2.29-.16-.22 2.54-1.44 2.48-1.22-.06-3.35-4.98-5.9-2.74-1.29 1.43 2.75 4.2 4.06 5.18 1.3.98-.03.71-1.55 1.6-1.51.88-.89 1.98 1.84 3.15s4.68 2.91 3.82 2.91c-.85 0-4.13-1.04-3.83.72.3 1.77 2.16 3.08 4.85 4.03 2.69.95 5.35 3 5.89 3.76.54.77 1.21-.9 1.21-.9z"/>
  <path fill="#4e9b7a" d="M15.63 36.36a.13.13 0 0 1-.13-.1c-.02-.15-2.54-14.08-13.99-21.85a.13.13 0 0 1 .15-.22c11.54 7.84 14.08 21.88 14.1 22.02a.13.13 0 0 1-.13.15z"/>
  <path fill="#4e9b7a" d="m14.54 32.3-.07-.03a47.15 47.15 0 0 1-8.15-4.5.13.13 0 0 1 .15-.2c.04.02 4.13 2.87 8.03 4.43 2-1.51 2.8-5.62 3.04-7.33 0-.07.02-.1.02-.11a.13.13 0 0 1 .25.06l-.01.1c-.25 1.75-1.07 6-3.2 7.53z"/>
  <path fill="#4e9b7a" d="m12.16 26.72-.11-.1a24.76 24.76 0 0 0-8.27-4.86.13.13 0 0 1-.1-.17c.03-.07.1-.1.17-.08.05.01 4.45 1.4 8.26 4.8 1.28-2.06.93-7.16.93-7.22a.13.13 0 1 1 .27-.02c.01.23.37 5.47-1.06 7.52z"/>
  <path fill="#4e9b7a" d="M8.57 21.04h-.03a.13.13 0 0 1-.1-.16c.52-2.6-.73-6.19-.74-6.22a.13.13 0 0 1 .08-.17c.07-.03.15.01.17.08.05.15 1.28 3.7.75 6.36a.13.13 0 0 1-.13.1z"/>
  <path fill="#ea8807" d="M8.87 33.74H29.7s-2.24 13.5-3.53 16.49c-1.28 2.99-11.39 2.77-13.45.5-2.07-2.28-3.85-16.99-3.85-16.99z"/>
  <path fill="#d37607" d="M8.87 33.74s.56 4.6 1.41 9.05c1.02-2.6 3.06-4.86 5.43-5.8 3.93-1.86 9.25-1.32 13.27.84.43-2.36.72-4.09.72-4.09z"/>
  <path fill="#ea8807" d="M29.7 35.1H8.66a1.36 1.36 0 0 1 0-2.7l21.04-.01a1.35 1.35 0 0 1 0 2.7z"/>
</svg>
