<svg xmlns="http://www.w3.org/2000/svg" viewBox="0 0 47.04 51.94">
  <path fill="#53a57f" d="M22.93 33.55s2.47-2.77 2.29-9.26c-.18-6.73 3.53-19.75 12.79-22.05-2.3 4.5-4.68 9.53-6 16.5-1.32 6.96-5.2 13.14-9.08 14.81z"/>
  <path fill="#24543f" d="M23.43 33.65a.1.1 0 0 1-.07-.17c.05-.04 4.43-4.91 5.6-12.53 1.21-7.9 5.74-16.08 7.7-17.72a.1.1 0 0 1 .13.15c-1.94 1.63-6.43 9.75-7.64 17.6a26.35 26.35 0 0 1-5.64 12.64.1.1 0 0 1-.08.03z"/>
  <path fill="#24543f" d="M33.45 8.18a.07.07 0 0 1-.07-.07c-.1-1.72.2-3.32.2-3.33.02-.04.05-.06.09-.05.03 0 .06.04.05.07 0 .02-.32 1.6-.2 3.3 0 .04-.03.07-.07.08zm-2.48 5.61a.07.07 0 0 1-.06-.06c-.18-.93-.32-2.68-.01-5.72v-.14c0-.04.04-.07.07-.07.04 0 .07.03.07.07l-.01.15c-.3 3.03-.16 4.76.01 5.69a.07.07 0 0 1-.07.08zm-1.61 5.56a.07.07 0 0 1-.06-.05 21.65 21.65 0 0 1-1.4-6.47c0-.04.03-.07.06-.07.04 0 .07.03.07.07 0 .03.13 3.33 1.4 6.42a.07.07 0 0 1-.07.1zm-1.39 5.85a.07.07 0 0 1-.06-.03c-1.13-1.82-2.02-5.84-2.03-5.88a.07.07 0 0 1 .13-.03c.01.05.89 4.04 2.01 5.84a.07.07 0 0 1-.05.1zm-1.43 3.61-.95-3.3a.07.07 0 1 1 .12-.03l.9 3.12c.36-.24 1.87-1.3 2.3-1.94a.07.07 0 0 1 .1-.01c.03.02.04.06.02.09-.52.75-2.34 1.97-2.41 2.02zm1.79-4.5a.07.07 0 0 1-.04-.12c.02-.01 2.4-1.6 2.95-2.94a.07.07 0 0 1 .13.05c-.57 1.38-2.9 2.94-3 3a.07.07 0 0 1-.04.01zm1.29-6.1a.07.07 0 0 1-.03-.13c.02 0 1.6-.7 2.6-2.62a.07.07 0 0 1 .12.06 6.22 6.22 0 0 1-2.69 2.7zm2.08-6.29a.07.07 0 0 1 0-.13c.01 0 1.74-.19 2.34-1.3a.07.07 0 0 1 .1-.04c.02.02.04.06.02.1-.64 1.18-2.38 1.36-2.45 1.37h-.01zm2.4-4.94a.07.07 0 0 1-.02-.13c.01 0 1.3-.48 1.87-1.13a.07.07 0 0 1 .1.1 5.73 5.73 0 0 1-1.95 1.16z"/>
  <path fill="#3e8768" d="M23.87 35.42s-3.13-10.82-9.3-12.82C8.38 20.6 2.01 23.91 0 31.2c7.1-2.83 10.76-3.27 15.47-1.42 3.34 1.32 5.93 3.64 8.4 5.64z"/>
  <path fill="#24543f" d="M23.54 35.26a.1.1 0 0 1-.08-.05c-3.58-5.84-7.84-9.02-12.67-9.43A10.93 10.93 0 0 0 .96 30.1.1.1 0 0 1 .8 30a11.1 11.1 0 0 1 10.01-4.42c4.9.42 9.2 3.63 12.82 9.53a.1.1 0 0 1-.09.15z"/>
  <path fill="#24543f" d="M5.55 26.5h-.02a4.67 4.67 0 0 0-2.8 0 .07.07 0 0 1-.08-.04.07.07 0 0 1 .04-.09 4.7 4.7 0 0 1 2.88 0c.04.01.06.05.05.08a.08.08 0 0 1-.07.05zm5.25-.75c-.01 0-.03 0-.04-.02a8.62 8.62 0 0 0-4.33-2.12.07.07 0 0 1-.06-.08c0-.03.04-.06.08-.05.02 0 2.7.42 4.4 2.16a.07.07 0 0 1-.05.1zM15.3 27a.07.07 0 0 1-.07-.04 12.88 12.88 0 0 0-3.17-4.36.07.07 0 0 1 0-.1.07.07 0 0 1 .09 0c.02.02 2.28 1.99 3.2 4.4a.07.07 0 0 1-.06.1zm3.59 2.45a.07.07 0 0 1-.07-.07 9.25 9.25 0 0 0-.4-3.54.07.07 0 0 1 .03-.09c.04-.01.07 0 .09.04 0 .02.55 1.5.41 3.6 0 .03-.03.06-.06.06zm2.37 2.51h-.01a.07.07 0 0 1-.06-.08 7.79 7.79 0 0 0-.24-2.6.07.07 0 0 1 .04-.09c.04 0 .07.01.08.05 0 .01.4 1.36.25 2.66 0 .03-.03.06-.06.06zm-1.13-.28c-.43 0-.73-.1-.87-.15l-.08-.03a.07.07 0 0 1-.06-.06c0-.04.03-.07.06-.07l.12.03c.21.08.78.27 1.61.03.04 0 .08.01.09.05a.07.07 0 0 1-.05.08 3 3 0 0 1-.82.12zm-4.75-2.34c-.27 0-.44-.02-.47-.02a.07.07 0 0 1-.06-.07c0-.03.03-.06.08-.06.01 0 1.85.16 3.04-.6a.07.07 0 1 1 .07.11 5.2 5.2 0 0 1-2.66.64zm-4.09-.97a.07.07 0 0 1-.07-.05c0-.03.02-.07.05-.08.03 0 2.87-.76 3.15-1.69a.06.06 0 0 1 .08-.04c.04 0 .06.04.05.08-.3 1-3.13 1.75-3.25 1.78h-.01zm-4.17.25a.07.07 0 0 1-.04-.12c.02-.02 1.95-1.35 2.34-2.83 0-.04.04-.06.08-.05.03 0 .05.04.04.08-.4 1.53-2.3 2.85-2.38 2.9a.07.07 0 0 1-.04.02zm-3.48.83c-.02 0-.03 0-.04-.02a.07.07 0 0 1-.02-.09c.01-.01.84-1.2.82-2.35 0-.04.03-.07.06-.07.04 0 .07.03.07.07a4.74 4.74 0 0 1-.84 2.43.06.06 0 0 1-.05.03z"/>
  <path fill="#3e8768" d="M25.17 35.32s.13-11.26 5.54-14.83c5.42-3.58 12.44-2.1 16.33 4.38-7.6-.82-11.24-.27-15.28 2.78-2.87 2.15-4.75 5.08-6.59 7.67z"/>
  <path fill="#24543f" d="M25.41 35.08h-.02a.1.1 0 0 1-.07-.12c1.9-6.65 5.2-10.9 9.8-12.6a11.14 11.14 0 0 1 10.83 1.57.1.1 0 0 1-.13.15 10.94 10.94 0 0 0-10.63-1.54c-4.54 1.69-7.8 5.88-9.68 12.47a.1.1 0 0 1-.1.07z"/>
  <path fill="#24543f" d="M40.42 21.83a.07.07 0 0 1-.04-.12c1.4-.9 2.73-.77 2.78-.77.04 0 .06.04.06.07 0 .04-.04.07-.07.06a4.68 4.68 0 0 0-2.73.76zm-5.26.68h-.04a.07.07 0 0 1-.02-.1c1.17-2.12 3.64-3.24 3.66-3.25a.07.07 0 1 1 .06.12 8.63 8.63 0 0 0-3.6 3.2.07.07 0 0 1-.06.03zm-4 2.41a.07.07 0 0 1-.06-.08c.25-2.58 1.9-5.07 1.91-5.1a.07.07 0 0 1 .11.07c-.02.03-1.65 2.5-1.9 5.05 0 .03-.02.06-.06.06zm-2.8 3.32a.07.07 0 0 1-.07-.05c-.7-1.98-.56-3.56-.56-3.57 0-.04.03-.07.07-.06.04 0 .07.03.06.07 0 .02-.13 1.56.56 3.52a.07.07 0 0 1-.06.09zm-1.62 3.05a.07.07 0 0 1-.06-.04 7.95 7.95 0 0 1-.47-2.63c0-.04.02-.06.07-.07.03 0 .06.03.06.07 0 .01-.01 1.39.46 2.58a.07.07 0 0 1-.06.09zm.23-.47c-.05 0-.09-.02-.09-.06 0-.04.03-.07.07-.07h.02c.85 0 1.34-.33 1.53-.46a.41.41 0 0 1 .1-.06c.04-.01.07 0 .08.04a.07.07 0 0 1-.04.09l-.07.04c-.2.13-.71.48-1.6.48zm3.09-3.38c-.36 0-.73-.04-1.08-.15a.07.07 0 0 1-.04-.08.07.07 0 0 1 .08-.04 5.8 5.8 0 0 0 3.1-.24c.03-.01.07 0 .09.04 0 .03 0 .07-.04.08-.06.02-1.04.39-2.11.39zm5.24-2.27c-.52 0-3-.04-3.5-.85a.07.07 0 0 1 .01-.1.07.07 0 0 1 .1.03c.5.82 3.45.79 3.48.79.04 0 .07.03.07.06 0 .04-.03.07-.07.07h-.1zm4.17-.87-.02-.01c-.1-.03-2.28-.8-3.08-2.16a.07.07 0 0 1 .03-.1c.03-.01.07 0 .09.03.77 1.32 2.98 2.1 3 2.1.04.01.06.05.04.09a.07.07 0 0 1-.06.04zm3.58-.14-.04-.01a4.77 4.77 0 0 1-1.46-2.12.07.07 0 0 1 .13-.03 4.72 4.72 0 0 0 1.41 2.04.07.07 0 0 1-.04.12z"/>
  <path fill="#53a57f" d="M24.36 34.1s-2.47-2.77-2.3-9.25c.2-6.75-3.51-19.76-12.77-22.05 2.3 4.5 4.67 9.52 6 16.49 1.32 6.97 5.2 13.14 9.08 14.82z"/>
  <path fill="#24543f" d="M23.85 34.2a.1.1 0 0 1-.07-.03 26.35 26.35 0 0 1-5.65-12.64c-1.2-7.85-5.7-15.97-7.64-17.6a.1.1 0 1 1 .13-.15c1.96 1.65 6.5 9.83 7.7 17.72a26.14 26.14 0 0 0 5.6 12.54.1.1 0 0 1-.07.17z"/>
  <path fill="#24543f" d="M13.84 8.73a.07.07 0 0 1-.06-.07c.1-1.71-.2-3.29-.21-3.3a.07.07 0 0 1 .13-.03c0 .02.32 1.6.2 3.34 0 .03-.02.06-.06.06zm2.47 5.61h-.01a.07.07 0 0 1-.05-.08 20.71 20.71 0 0 0 0-5.84.07.07 0 0 1 .13 0l.01.14c.3 3.04.16 4.8-.01 5.72-.01.04-.04.06-.07.06zm.07-5.92zm1.54 11.48h-.02a.07.07 0 0 1-.04-.1 21.56 21.56 0 0 0 1.4-6.42c0-.04.02-.06.06-.07.04 0 .07.04.07.07 0 .04-.14 3.36-1.4 6.48a.07.07 0 0 1-.07.04zm1.4 5.85-.03-.01a.07.07 0 0 1-.02-.1c1.12-1.79 2-5.78 2-5.82.01-.04.05-.06.08-.05.04 0 .06.04.05.08 0 .04-.89 4.05-2.02 5.87a.07.07 0 0 1-.06.03zm1.43 3.61-.08-.05c-.08-.05-1.9-1.27-2.41-2.02a.07.07 0 0 1 .02-.1.07.07 0 0 1 .09.03c.44.64 1.94 1.69 2.3 1.93l.9-3.12a.07.07 0 0 1 .08-.05c.04.01.06.05.05.09zm-1.79-4.49-.04-.01c-.1-.07-2.44-1.63-3-3a.07.07 0 0 1 .12-.05c.55 1.33 2.93 2.92 2.96 2.94a.07.07 0 0 1-.04.12zm-1.3-6.11h-.02c-.02-.01-1.63-.73-2.66-2.69a.07.07 0 0 1 .03-.09c.03-.01.07 0 .09.03a6.08 6.08 0 0 0 2.6 2.63c.02.01.04.05.03.08a.07.07 0 0 1-.07.04zm-2.07-6.29c-.08 0-1.82-.19-2.46-1.37a.07.07 0 0 1 .11-.07c.61 1.12 2.34 1.31 2.35 1.31.04 0 .07.04.06.07 0 .04-.03.06-.06.06zm-2.4-4.94h-.03a5.73 5.73 0 0 1-1.93-1.17.07.07 0 0 1 .01-.1.07.07 0 0 1 .1.01 5.56 5.56 0 0 0 1.87 1.13c.03.02.05.06.04.09a.07.07 0 0 1-.06.04z"/>
  <path fill="#3e8768" d="M23.56 34.04s-3.64-7.6-2.72-17.6c.91-10 2.73-14.32 2.75-16.44 3.45 3.7 4.73 10.95 4.14 17.25-.6 6.3-3.07 15.86-4.17 16.8z"/>
  <path fill="#24543f" d="M24.28 34.84a.1.1 0 0 1-.1-.1c-.01-.1-.93-10.13.41-16.75 1.34-6.59-.4-15.77-.41-15.86a.1.1 0 1 1 .2-.04c.01.1 1.75 9.31.4 15.94-1.33 6.6-.41 16.6-.4 16.7a.1.1 0 0 1-.1.1z"/>
  <path fill="#24543f" d="M25.25 10.86c-.02 0-.03 0-.05-.02a.07.07 0 0 1 0-.09c0-.01 1.22-1.5 1.15-2.98 0-.04.03-.07.06-.07.04 0 .07.03.07.06.08 1.53-1.13 3.01-1.18 3.07a.07.07 0 0 1-.05.03zm-.15-1.74a.07.07 0 0 1-.05-.03l-2.08-3.32a.07.07 0 0 1 .02-.09.07.07 0 0 1 .1.02l2.07 3.32a.07.07 0 0 1-.06.1zm-.03 6.3c-.02 0-.04 0-.05-.02-1.6-1.72-3.23-4.56-3.12-4.77a.07.07 0 0 1 .09-.03c.03.01.04.05.03.08a19.3 19.3 0 0 0 3.1 4.63.1.1 0 0 1 0 .1.07.07 0 0 1-.05.01zm-.9 6.42c-.02 0-.03 0-.05-.02a16.78 16.78 0 0 1-2.46-4.1c-.15-.32-.29-.62-.34-.66-.04 0-.05-.03-.05-.07 0-.04.04-.06.08-.06.1.01.17.16.43.74.42.92 1.2 2.64 2.44 4.06a.07.07 0 0 1-.05.11zm-.21 5.99c-.01 0-.03 0-.04-.02-1.27-1.2-2.54-3.82-2.55-3.84a.07.07 0 0 1 .12-.06c0 .03 1.27 2.62 2.52 3.8.02.03.03.07 0 .1a.07.07 0 0 1-.05.02zm.02-2.26a.07.07 0 0 1-.02-.13c.01 0 1.73-.67 2.75-3.3a.07.07 0 0 1 .09-.04c.03.01.05.05.03.08-1.04 2.7-2.81 3.37-2.83 3.38h-.02zm.42-5.71a.07.07 0 0 1-.07-.04.07.07 0 0 1 .04-.08c.02-.01 2.23-.88 2.85-2a.07.07 0 0 1 .09-.03c.03.01.04.05.02.09-.63 1.16-2.82 2.02-2.91 2.06h-.03zm.76-5.85a.07.07 0 0 1-.04-.12c.03-.01 2.14-1.35 2.23-2.85 0-.03.03-.06.07-.06.04 0 .07.04.06.07-.1 1.56-2.2 2.9-2.29 2.95a.07.07 0 0 1-.03.01z"/>
  <path fill="#ea8807" d="M12.7 33.23h20.83S31.29 46.73 30 49.72c-1.28 2.99-11.39 2.77-13.45.5-2.07-2.28-3.85-17-3.85-17z"/>
  <path fill="#d37607" d="M12.7 33.23s.56 4.6 1.41 9.04c1.02-2.59 3.06-4.85 5.43-5.8 3.93-1.86 9.25-1.32 13.27.85.43-2.36.72-4.1.72-4.1z"/>
  <path fill="#ea8807" d="M33.53 34.58H12.49a1.35 1.35 0 0 1 0-2.71h21.04a1.36 1.36 0 0 1 0 2.7z"/>
</svg>
