<svg xmlns="http://www.w3.org/2000/svg" viewBox="0 0 38.3 58.83">
  <path fill="#285b45" d="M14.98 33.99s-1.13-8.18-6.75-10.92-7.67-.78-6.14 2.27c1.52 3.05 8.26 6.1 9.19 8.65.93 2.54 3.7 0 3.7 0z"/>
  <path fill="#4e9b7a" d="M11.79 33.89h-.02a.13.13 0 0 1-.11-.15c0-.02.2-1.62-3.2-3.57-3.13-1.79-6.16-5.71-6.11-7.92v-.11l.12-.01c2.5-.28 9.11 4.56 9.4 4.76a.13.13 0 0 1-.16.21c-.07-.04-6.6-4.83-9.1-4.72.08 1.94 2.78 5.73 5.98 7.56 3.56 2.04 3.34 3.77 3.33 3.84a.13.13 0 0 1-.13.11z"/>
  <path fill="#4e9b7a" d="M8.92 28.13c-.03 0-.05 0-.08-.02-.22-.16-5.39-3.92-6.47-5.79a.13.13 0 1 1 .23-.13c1.05 1.82 6.35 5.67 6.4 5.7a.13.13 0 0 1-.08.24z"/>
  <path fill="#285b45" d="M15.68 34.04s1.12-11.79-.99-18.55c-2.1-6.76-3.54-13.73 0-15.23s5 3.8 4.92 7.4c-.06 3.63.82 5.79.82 9.1 0 3.3.13 14.5-.82 18.55-.94 4.07-3.93-1.27-3.93-1.27z"/>
  <path fill="#4e9b7a" d="M18.4 35.36h-.02a.13.13 0 0 1-.1-.16c0-.04.9-4.65 1.2-7.44.2-1.84.2-5.5 0-10.9v-.08c-.03-.8-.15-1.96-.28-3.18a48.72 48.72 0 0 1-.34-4c-.01-1.68-.17-4.75-.98-6.57-.82-1.86-1.7-2.62-2.18-2.55-.53.08-.79.85-1.25 3.8-.44 2.83.4 6.12 1.35 9.26.9 2.92 1.3 6.47 1.63 10.9.33 4.44-.8 10.3-.81 10.36a.13.13 0 1 1-.26-.05c.01-.06 1.13-5.89.8-10.28-.32-4.42-.72-7.95-1.6-10.85-.98-3.17-1.82-6.5-1.37-9.39.46-2.97.73-3.9 1.47-4.01.73-.1 1.68.93 2.47 2.7.78 1.77.98 4.6 1 6.67.01 1.03.17 2.53.33 3.99.13 1.22.26 2.38.29 3.2v.06c.2 5.41.2 9.1 0 10.95-.31 2.8-1.21 7.42-1.22 7.47a.13.13 0 0 1-.13.1z"/>
  <path fill="#4e9b7a" d="M17.45 35.32h-.02a.13.13 0 0 1-.1-.16c0-.05.96-5.24 1-7.5l.04-1.44c.07-2.33.16-5.52-.14-6.95-.38-1.78-1.28-7.57-1.8-11.12-.51-3.53-.88-7.75-.88-7.79a.12.12 0 0 1 .12-.14c.07-.01.13.05.14.12 0 .04.37 4.25.89 7.77.51 3.54 1.41 9.33 1.79 11.1.3 1.46.21 4.67.15 7.02l-.04 1.44c-.04 2.28-1 7.49-1.02 7.54a.13.13 0 0 1-.13.1z"/>
  <path fill="#316952" d="M21.47 35.89s.44-7.93 4.79-15.24c4.34-7.3 8.16-11.06 10.94-11.06 2.78 0-.34 4.72-2.54 7.06s-2.38 5.3-4.24 7.06c-1.85 1.76-4.23 7.12-5.11 9.65-.88 2.52-3.84 2.53-3.84 2.53z"/>
  <path fill="#4e9b7a" d="m22.4 35.52-.27-.04c.05-.34 1.16-8.47 3.51-11.76 1.1-1.53 2.1-3.17 3.09-4.76a51.73 51.73 0 0 1 3.18-4.77c1.84-2.31 5.08-4.32 5.77-4.38l.16-.02-.02.17c-.25 1.79-2.54 5.4-4.13 6.9-.76.71-1.53 2.13-2.34 3.62-.8 1.47-1.62 2.99-2.59 4.2-1.95 2.43-4.33 8.7-4.65 9.95l-.25-.06c.31-1.27 2.72-7.6 4.7-10.06a28.3 28.3 0 0 0 2.56-4.15c.82-1.52 1.6-2.95 2.39-3.7 1.47-1.38 3.64-4.77 4.01-6.54a16.6 16.6 0 0 0-5.4 4.23 51.54 51.54 0 0 0-3.16 4.75c-.99 1.59-2 3.24-3.1 4.77-2.32 3.24-3.45 11.57-3.46 11.65z"/>
  <path fill="#4e9b7a" d="M23.2 34.9h-.03a.13.13 0 0 1-.1-.14c.03-.26.86-6.29 3.08-9.06 2.2-2.75 4.6-6.74 5.12-8.52.53-1.85 3.4-3.92 3.52-4.01a.13.13 0 1 1 .15.21c-.03.03-2.9 2.12-3.42 3.87-.54 1.85-2.9 5.8-5.16 8.61-2.18 2.72-3.03 8.87-3.04 8.93 0 .07-.06.12-.13.12z"/>
  <path fill="#316952" d="M16.55 37.69s.41-9.24-3.77-18.21S4.61 5.72 1.4 5.4c-3.21-.33-.16 5.5 2.13 8.47 2.28 2.96 2.14 6.4 4.08 8.67 1.94 2.25 4.07 8.75 4.8 11.77.73 3.02 4.15 3.38 4.15 3.38z"/>
  <path fill="#4e9b7a" d="M15.55 37.15c0-.1-.36-9.87-2.66-13.9-1.1-1.9-2.08-3.93-3.03-5.89-1.09-2.22-2.11-4.32-3.11-5.87C4.99 8.78 1.87 6.36.93 5.93c.2 2.1 2.35 6.32 3.9 8.1.83.95 1.56 2.7 2.34 4.56a32.6 32.6 0 0 0 2.48 5.1c.38.58.78 1.34 1.19 2.28a55.6 55.6 0 0 1 3.08 9.91l-.26.04a55.25 55.25 0 0 0-3.07-9.84c-.4-.93-.8-1.68-1.16-2.25a33.17 33.17 0 0 1-2.5-5.14c-.78-1.83-1.5-3.56-2.3-4.48C2.97 12.29.73 7.85.65 5.75v-.17l.16.03c.79.16 4.3 2.85 6.16 5.74a60.19 60.19 0 0 1 3.13 5.9c.95 1.95 1.93 3.97 3.02 5.87 2.34 4.08 2.69 13.92 2.7 14.02z"/>
  <path fill="#4e9b7a" d="M2.81 8.82a.13.13 0 0 1-.1-.05C2.03 8.05.74 5.9.68 5.81a.13.13 0 0 1 .23-.13c.01.02 1.33 2.2 2 2.91a.13.13 0 0 1-.09.23zM14.56 36.2c0-.07-.28-7.3-2.49-10.7-2.28-3.53-4.56-8.37-4.97-10.57-.39-2.1-3.49-4.86-3.52-4.9l.17-.2c.13.12 3.2 2.86 3.61 5.05.4 2.13 2.7 7.03 4.94 10.47 2.25 3.47 2.51 10.54 2.52 10.84z"/>
  <path fill="#316952" d="M19 33.76s.68-6.49 1.87-11.85c1.2-5.36 4.83-10.12 5.1-12.76.26-2.65 2.38-6.82 4.56-6.09 2.18.73 2.12 3.27.86 6.53a46.74 46.74 0 0 1-5.76 10.7C22.86 24.17 21.68 34 21.68 34z"/>
  <path fill="#4e9b7a" d="M19.61 34.6a.13.13 0 0 1-.13-.15c0-.07.62-7.58 1.87-10.86.6-1.58 1.34-2.88 2.12-4.26a35 35 0 0 0 2.57-5.2A181.4 181.4 0 0 0 28.1 8.2a40.74 40.74 0 0 1 1.56-4.28c.3-.52.58-.77.87-.77.23 0 .44.15.65.48.46.73.09 4.3-1.1 6.53-.48.9-.78 1.79-1.06 2.63-.41 1.22-.8 2.38-1.7 3.6a35.11 35.11 0 0 0-3.3 5.19c-.53 1.06-.9 2.52-1.31 4.22-.2.81-.43 1.73-.7 2.7-.8 2.92-.69 5.93-.69 5.96 0 .07-.05.13-.12.13a.13.13 0 0 1-.14-.12c0-.03-.12-3.08.7-6.04.27-.96.48-1.84.7-2.7.42-1.7.78-3.19 1.33-4.27a35.35 35.35 0 0 1 3.31-5.23c.88-1.19 1.26-2.32 1.67-3.52.29-.86.59-1.75 1.08-2.68 1.15-2.17 1.49-5.66 1.1-6.26-.14-.24-.28-.35-.42-.36-.18 0-.4.22-.65.64-.25.43-.84 2.2-1.53 4.24a181.2 181.2 0 0 1-2.07 5.93c-.8 2.13-1.71 3.71-2.59 5.24a28.84 28.84 0 0 0-2.1 4.22c-1.23 3.25-1.85 10.72-1.85 10.8 0 .06-.07.11-.14.11z"/>
  <path fill="#4e9b7a" d="M27.44 13.71a.13.13 0 0 1-.12-.19c2.55-5.45 3-9.47 3.06-10.15a.83.83 0 0 0-.63.08c-1.87.96-3.5 7.55-3.52 7.61a.13.13 0 1 1-.26-.06c.07-.28 1.68-6.78 3.67-7.79.31-.16.63-.18.93-.05l.09.03v.1c-.01.04-.3 4.35-3.1 10.34a.13.13 0 0 1-.12.08z"/>
  <path fill="#ea8807" d="M9.6 35.16s1.45 19.67 1.8 22.06c.36 2.38 8.56 1.46 11.11 1.35 2.56-.12 2.42-2.5 2.47-5.06.09-3.96.86-18.64.84-18.34z"/>
  <path fill="#d37607" d="m25.67 38.05.15-2.88H9.6l.66 8.6c3.31-4.88 9.3-7.66 15.42-5.72z"/>
  <path fill="#ea8807" d="M25.87 36.13H9.9a1.68 1.68 0 0 1 0-3.35h15.97a1.67 1.67 0 0 1 0 3.35z"/>
</svg>
