<svg xmlns="http://www.w3.org/2000/svg" viewBox="0 0 35.99 52.12">
  <path fill="#3e8768" d="M7.32 35.6s-1.26-11.38 3.04-18.86c4.3-7.48 11.9-9.13 15.61-4.83 3.7 4.3 2.65 12.11-1.19 16.6-3.84 4.5-4.37 7.54-4.37 7.54z"/>
  <path fill="#24543f" d="M10.78 35.72S8.86 14.24 23.92 10.83c.88 9.23-.75 13.26-3.09 16.28-2.33 3-3.12 9.1-3.12 9.1l.87.37s1.02-5.13 4.46-10.36c3.44-5.23 2.23-15.24 1.27-15.7-.95-.47-7.14.57-10.49 5.7-3.35 5.12-4.68 14.2-3.04 19.5z"/>
  <path fill="#24543f" d="M13.77 36s-.73-19.29 10.38-25.35c-4.36 4.65-6.55 7.27-8.27 15.88-1.72 8.62-1.12 10.2-1.12 10.2z"/>
  <path fill="#3e8768" d="M15.32 11.9s-2.45.14-2.51-2.67c-.07-2.81-2.05-8.16-8.07-9.06-6.02-.9-6.15 7.18-1.26 9.06 4.9 1.88 7.54 3.96 6.88 8.31a24.63 24.63 0 0 0 4.96-5.63z"/>
  <path fill="#24543f" d="M12.28 10.02s-.43-5.26-4.2-7.34-5.95-1.49-6.65-1.1c-.7.4-1 3.81 1.95 6.06 2.95 2.25 5.92 3.1 7.21 5.32 1.3 2.22 1 2.91 1 2.91s.46-1.57-.9-3.96C9.33 9.52 5.3 9.03 3.35 6.65 1.4 4.27 1.63 2.5 1.7 2.08c1.95-.53 3.84-.03 5.96.96 2.12 1 4.09 4.9 4.62 6.98z"/>
  <path fill="#24543f" d="M12.08 12.67s-1.57-4.34-4.93-6.49c-3.37-2.15-5.06-3.4-5.45-4.1 0-.62.43-.31.43-.31s1.09 1.32 3.4 2.55a12.94 12.94 0 0 1 6.55 8.35z"/>
  <path fill="#3e8768" d="M24.75 10.8s1.42 1.43 1.47-.55c.05-1.98 1.44-5.74 5.68-6.38 4.23-.63 4.33 5.05.88 6.38-3.44 1.32-5.3 2.79-4.84 5.85-2.28-1.92-3.19-5.3-3.19-5.3z"/>
  <path fill="#24543f" d="M26.6 10.8s.3-3.7 2.95-5.16c2.65-1.47 4.19-1.05 4.67-.77.5.28.7 2.68-1.37 4.26-2.07 1.58-4.16 2.19-5.07 3.75-.91 1.55-.7 2.04-.7 2.04s-.33-1.1.63-2.79c.95-1.67 3.8-2.02 5.16-3.7 1.38-1.68 1.21-2.9 1.17-3.21-1.38-.37-2.71-.02-4.2.67-1.49.7-2.88 3.45-3.25 4.91z"/>
  <path fill="#24543f" d="M26.73 12.67s1.1-3.05 3.47-4.57c2.37-1.5 3.56-2.4 3.84-2.88 0-.44-.3-.22-.3-.22s-.77.92-2.4 1.8a9.1 9.1 0 0 0-4.61 5.87z"/>
  <path fill="#53a57f" d="m29.05 17.54-1.59 2.22 2.14-.31-1.42-.1zm-.95 6.8c-.24 0-2.58.45-2.58.45l1.5 1.6-.55-1.25zm-4.62-7.87c.1.07 1.12 1.98 1.12 1.98l1.3-2.58-1.3 1.5zm-2.02 6.85.27 3.64 2.61-1.6-2.18.45zm-7.7 2.89.99 3.56 2.57-1.83-2 .42zm2.72-9.01.57 3.3L20.5 19l-2.91.63zm5.29-6.2-.49 2.25 2.3-.24-1.8-.34zM7.84 19.94c.03.1 1.15 2.58 1.15 2.58l1.72-3.17-1.62 1.59zM5.9 30.57l2.33 1.8.49-3.24-.88 2zm6-12.75.7 2.68 2.72-1.34-2.24.19zm5.64-8.25s.1 1.87.16 1.95a60.2 60.2 0 0 0 3.59-2.26l-3.1 1.13zM4.6 2.5l1.67-.32L4.86 0l.57 1.79zM2.57 3.64h1.32l-.53-1.52.04 1.08zM.34 2.12h1.12V.46l-.33 1.35zM1.7 9.15l1.53-.46L1.6 8l.6.52zm2.6-.33h1.64l-.5-1.48v.98zm3.36-1.64 1.41.3-.35-1.84L8.7 7zM5.43 5.65l1.46-.3-.27-1.34-.2.95zm3.64-1.02c.09-.02 1.43.2 1.43.2l.1-1.66-.52 1.13zm2.16 3.81 1.05.82.52-1.79-.72 1.06zm21.41-4.29-1.1.8 1.23.57-.61-.69zM30.81 6.5l-.24 1.14 1.7.19-1.33-.49zm3.55 1.14V9.1l1.63-.29-1.3-.2zm-6.09-2.7.16 1.76s1.67-.4 1.56-.4c-.1 0-1.23-.2-1.23-.2zm-.57 3.9v1.4l.95-.28-.64-.2zm2.68.73-.27 1.08 1.3.26-1.03-.5z"/>
  <path fill="#ea8807" d="M2.76 36.93S-1.48 43.37.55 47.96c2.03 4.59 7.67 4.14 14.2 4.14 6.53 0 13.67 0 14.9-4.5 1.24-4.5-3.44-10.05-3.44-10.05z"/>
  <path fill="#d37607" d="M4.78 41.17c7.07-3.3 15.4-2.4 23.3-.86-.92-1.64-1.87-2.76-1.87-2.76l-23.45-.62S-1.48 43.37.55 47.96a5.9 5.9 0 0 0 1.49 2.07c-1.1-3.57-.76-7.27 2.74-8.86z"/>
  <path fill="#ea8807" d="M26.83 38.26H2.67a1.68 1.68 0 0 1 0-3.35h24.16c.92 0 1.68.75 1.68 1.67 0 .92-.76 1.68-1.68 1.68z"/>
</svg>
